<svg width="867" height="1001" viewBox="0 0 867 1001" fill="none" xmlns="http://www.w3.org/2000/svg">
<path d="M581.187 341.946C569.344 342.801 558.176 348.722 549.787 358.592C541.397 368.462 536.365 381.601 535.638 395.534H535.455C534.73 381.601 529.698 368.461 521.308 358.59C512.918 348.72 501.749 342.8 489.906 341.946V341.732C501.749 340.878 512.918 334.958 521.308 325.088C529.698 315.217 534.73 302.077 535.455 288.144H535.638C536.365 302.077 541.397 315.216 549.787 325.086C558.176 334.956 569.344 340.877 581.187 341.732V341.946Z" fill="#FF5500"/>
<path d="M586.557 497.919C546.849 500.826 509.403 520.955 481.273 554.514C453.142 588.073 436.27 632.745 433.833 680.115H433.221C430.788 632.743 413.916 588.068 385.785 554.508C357.654 520.948 320.206 500.821 280.497 497.919V497.188C320.206 494.286 357.654 474.159 385.785 440.599C413.916 407.039 430.788 362.364 433.221 314.992H433.833C436.27 362.362 453.142 407.035 481.273 440.593C509.403 474.152 546.849 494.281 586.557 497.188V497.919Z" fill="#FF5500"/>
<path d="M866.536 250.238V750.238L433.528 1000.24L0.515625 750.238V250.238L433.528 0.238281L866.536 250.238ZM476.479 175.38L736.337 325.411V675.066L346.275 900.263L433.523 950.634L823.58 725.436V275.035L563.727 125.01L476.479 175.38ZM43.4713 275.035V725.436L303.324 875.461L390.573 825.086L130.72 675.066V325.411L520.772 100.213L433.523 49.8377L43.4713 275.035ZM173.676 350.208V650.263L433.528 800.289L693.381 650.263V350.208L433.528 200.183L173.676 350.208Z" fill="#FF5500"/>
</svg>
